<svg xmlns="http://www.w3.org/2000/svg">
    <!-- 右箭头 -->
    <symbol id="icon-arrow-right" viewBox="0 0 1024 1024">
        <path d="M642.174253 504.59418C650.164439 511.835287 650.070886 522.174253 641.84009 529.376198L332.618569 799.94503C323.751654 807.703582 322.853148 821.181184 330.611697 830.048098 338.370249 838.915012 351.847851 839.813519 360.714765 832.05497L669.936288 561.486138C697.36486 537.486138 697.727953 497.358861 670.825747 472.978737L360.992414 192.192278C352.26205 184.280386 338.770837 184.943889 330.858944 193.674252 322.947053 202.404616 323.610556 215.895829 332.340919 223.807723L642.174253 504.59418Z"
        ></path>
    </symbol>
    <!-- 更多 -->
    <symbol id="icon-more" viewBox="0 0 1024 1024">
         <path d="M779.535731 510.304382c0 50.520627 40.056298 91.486644 89.447195 91.486644 49.408293 0 89.455381-40.966017 89.455381-91.486644 0-50.52779-40.047088-91.485621-89.455381-91.485621C819.592029 418.818761 779.535731 459.775568 779.535731 510.304382L779.535731 510.304382zM600.625992 510.304382c0-50.52779-40.049135-91.485621-89.448218-91.485621-49.400107 0-89.455381 40.957831-89.455381 91.485621 0 50.520627 40.055275 91.486644 89.455381 91.486644C560.57788 601.791026 600.625992 560.825009 600.625992 510.304382L600.625992 510.304382zM242.819816 510.304382c0-50.52779-40.008202-91.485621-89.454358-91.485621-49.400107 0-89.448218 40.957831-89.448218 91.485621 0 50.520627 40.048111 91.486644 89.448218 91.486644C202.81059 601.791026 242.819816 560.825009 242.819816 510.304382L242.819816 510.304382zM242.819816 510.304382"></path>
    </symbol>
    <!-- 定位 -->
    <symbol id="icon-location" viewBox="0 0 1024 1024">
        <path d="M787.510356 387.850445c0-152.160515-123.350352-275.511891-275.510868-275.511891S236.487597 235.68993 236.487597 387.850445c0 44.665269 10.640338 86.841857 29.507034 124.151601l-0.010233-0.001023 0.059352 0.100284c5.548366 10.962679 11.812023 21.500687 18.723434 31.56081L511.999488 926.678464l227.234351-383.021463c6.909363-10.057053 13.170974-20.593014 18.71934-31.552623l0.062422-0.104377-0.011256 0.002047C776.870018 474.692303 787.510356 432.515714 787.510356 387.850445zM511.999488 506.802628c-74.596975 0-135.070278-60.47228-135.070278-135.070278 0-74.595952 60.47228-135.069255 135.070278-135.069255 74.595952 0 135.069255 60.473303 135.069255 135.069255C647.068743 446.330348 586.59544 506.802628 511.999488 506.802628z"></path>
    </symbol>
    <!-- 收藏 -->
    <symbol id="icon-collect" viewBox="0 0 1024 1024">
        <path d="M283.766 943.874c-23.453 0-39.47-8.011-50.91-17.163-37.182-30.316-42.33-94.384-15.443-171.033l25.741-78.368c14.299-41.757 9.151-47.478-12.585-64.066l-121.268-87.519c-0.571 0-0.571-0.571-1.146-0.571-41.757-33.179-57.774-80.082-42.33-122.986 14.299-40.614 52.627-66.355 97.243-66.355 0.571 0 1.146 0 1.716 0l161.309 0.571c0.571 0 1.146 0 1.716 0 26.886 0 27.457-2.288 34.319-22.881l51.483-159.594c0 0 0-0.571 0-0.571 18.307-52.053 55.484-85.232 96.1-85.804 0.571 0 0.571 0 1.146 0 41.184 1.146 77.793 33.75 96.1 85.804 0 0 0 0.571 0 0.571l44.047 136.711c9.726 26.313 14.873 33.75 20.021 36.607 8.011 5.149 26.313 6.293 54.343 9.151h130.419c45.189-0.571 84.086 25.169 98.387 66.355 15.443 42.901-1.146 89.807-42.33 122.986-0.571 0-0.571 0.571-1.146 0.571l-119.552 86.947c-0.571 0.571-1.716 1.146-2.288 1.716-20.592 12.014-23.453 18.307-10.297 67.498l24.025 74.361c27.457 76.651 21.737 140.717-15.443 171.033-22.881 18.876-66.925 32.034-145.866-14.873-0.571-0.571-1.716-1.146-2.288-1.716l-114.976-84.086c-10.868-8.011-14.299-8.579-14.873-8.579-0.571 0-4.576 1.716-15.443 9.726l-113.83 82.942c-0.571 0.571-1.716 1.146-2.288 1.716-38.898 22.308-69.786 30.89-93.811 30.89zM672.164 863.218c44.047 25.741 70.359 26.886 79.511 18.876 13.728-11.439 17.731-53.197-2.288-108.683 0 0 0-0.571 0-0.571l-24.595-75.506c0-0.571-0.571-1.146-0.571-1.146-11.439-42.33-25.741-94.954 34.894-131.565l118.406-85.804c22.308-17.731 30.89-39.47 24.025-59.491-6.293-17.163-23.453-28.603-44.047-28.603 0 0-0.571 0-0.571 0h-130.419c-1.146 0-1.716 0-2.86 0h-2.86c-73.79-6.863-96.67-12.014-122.986-82.942 0-0.571 0-0.571-0.571-1.146l-44.047-136.711c-11.439-32.034-29.744-46.906-43.473-48.048-13.155 0.571-32.034 15.443-43.473 48.048l-51.483 159.594c-14.873 45.761-38.325 62.349-89.235 62.349 0 0-0.571 0-0.571 0h-160.737c-21.165-0.571-38.325 10.868-44.617 28.603-6.863 20.021 1.716 41.184 24.025 59.491l120.694 87.519c45.189 33.75 53.197 66.925 32.605 127.559l-25.741 78.368c0 0 0 0.571 0 0.571-20.021 55.484-16.016 97.243-2.288 108.683 9.726 8.011 35.465 6.863 79.511-18.876l112.115-81.797c32.605-24.025 56.629-30.89 97.243-1.146l114.403 82.37z"></path>    
    </symbol>
    <!-- 已收藏 -->
    <symbol id="icon-collected" viewBox="0 0 1024 1024">
        <path d="M240.154 934.54c11.134 7.636 24.193 11.516 37.266 11.516a66.176 66.176 0 0 0 31.297-7.84l203.258-109.464 203.3 109.463a66.374 66.374 0 0 0 31.296 7.841c13.06 0 26.12-3.88 37.294-11.516 20.19-13.948 30.518-37.854 26.474-61.706l-39.616-236.632 170.91-170.663c16.925-16.831 22.718-41.53 15.012-63.96-7.732-22.39-27.622-38.742-51.568-42.32l-233.149-34.686-101.361-210.389c-10.628-22.103-33.47-36.242-58.592-36.242-25.04 0-47.894 14.14-58.563 36.242l-101.336 210.39-233.16 34.684c-23.962 3.579-43.852 19.931-51.57 42.321-7.705 22.43-1.871 47.129 15.04 63.96l170.841 170.663-39.629 236.632c-3.99 23.852 6.323 47.758 26.556 61.706z"></path>
    </symbol>
    <!-- 转发 -->
    <symbol id="icon-repost" viewBox="0 0 1024 1024">
        <path d="M617.5 271.8l278.6 244.1L611.6 763 611.6 641.5l0-59.7-59.2 7.3c-12.3 1.5-250.9 32.4-443.4 158.8 9.4-27.7 21.8-57.3 38.3-86.7 79.6-142.1 215-214.1 402.4-214.1 4.6 0 9.3 0 14 0.1l53.7 1 0-53.7L617.4 271.8M564.7 155.5l0 239.1c-5-0.1-10.1-0.1-15-0.1-504.6 0-521.9 488.1-522 490.1 182.3-199.9 531.1-243 531.1-243l0 237.1 417.5-362.6L564.7 155.5 564.7 155.5zM27.7 884.5C27.7 884.5 27.7 884.5 27.7 884.5 27.7 884.5 27.7 884.5 27.7 884.5L27.7 884.5z"></path>
    </symbol>
    <!-- 模板 -->
    <symbol id="icon-model" viewBox="0 0 1024 1024">
        <path d="M617.5 271.8l278.6 244.1L611.6 763 611.6 641.5l0-59.7-59.2 7.3c-12.3 1.5-250.9 32.4-443.4 158.8 9.4-27.7 21.8-57.3 38.3-86.7 79.6-142.1 215-214.1 402.4-214.1 4.6 0 9.3 0 14 0.1l53.7 1 0-53.7L617.4 271.8M564.7 155.5l0 239.1c-5-0.1-10.1-0.1-15-0.1-504.6 0-521.9 488.1-522 490.1 182.3-199.9 531.1-243 531.1-243l0 237.1 417.5-362.6L564.7 155.5 564.7 155.5zM27.7 884.5C27.7 884.5 27.7 884.5 27.7 884.5 27.7 884.5 27.7 884.5 27.7 884.5L27.7 884.5z"></path>
    </symbol>
    <!-- 活动 -->
    <symbol id="icon-activity" viewBox="0 0 29 32">
        <path d="M27,0H2V29H1.5a1.5,1.5,0,0,0,0,3h4a1.5,1.5,0,0,0,0-3H5V20H27a2,2,0,0,0,2-2V2A2,2,0,0,0,27,0ZM26,17H5V3H26Z"/>
    </symbol>
    <!-- 返回活动首页 -->
    <symbol id="icon-back-activity" viewBox="0 0 36 36">
      <path class="cls-1" d="M34.75,11.58l-15-11a2.93,2.93,0,0,0-3.5,0l-15,11A3.06,3.06,0,0,0,0,14.06V32.94A3,3,0,0,0,3,36H16V28a2,2,0,0,1,4,0v8H33a3,3,0,0,0,3-3.06V14.06A3.06,3.06,0,0,0,34.75,11.58ZM34,17.65V32.94A1,1,0,0,1,33,34H22V28a4,4,0,0,0-8,0v6H3a1,1,0,0,1-1-1.06V14.06a1.08,1.08,0,0,1,.43-.87l15-11a1,1,0,0,1,1.14,0l15,11a1.08,1.08,0,0,1,.43.87Z"  fill="#999"/>
    </symbol>
</svg>