<svg xmlns="http://www.w3.org/2000/svg">
    <symbol id="icon-share" viewBox="0 0 34.06 34">
        <path d="M2674.03,1297a1.449,1.449,0,0,1,1.44,1.45,1.434,1.434,0,0,1-1.44,1.44,14.11,14.11,0,1,0,14.13,14.11,1.445,1.445,0,1,1,2.89,0,17.025,17.025,0,1,1-17.02-17h0Zm8.76,7.23a1.421,1.421,0,0,1,2.02-2l2.49,2.49a1.907,1.907,0,0,1,0,2.72l-2.49,2.49a1.421,1.421,0,0,1-2.01-2.01l0.42-.42h-1.83c-4.99,0-6.69,2.12-6.69,8.54a1.42,1.42,0,1,1-2.84,0c0-7.94,2.9-11.38,9.53-11.38h1.83Zm0,0" transform="translate(-2657 -1297)"/>
    </symbol>
    <symbol id="icon-heart" viewBox="0 0 36.97 30.97">
        <path d="M3053.56,1315.07l-9.9,9.9-2.83,2.83a4.008,4.008,0,0,1-5.66,0l-2.83-2.83-9.9-9.9a10,10,0,0,1,14.15-14.14l1.41,1.41,1.41-1.41A10,10,0,0,1,3053.56,1315.07Zm-1.42-12.73a8,8,0,0,0-11.31,0l-2.83,2.83-1.41-1.41-1.42-1.42a8,8,0,0,0-11.31,11.32h0l11.31,11.31h0a4.008,4.008,0,0,0,5.66,0l11.31-11.31A8,8,0,0,0,3052.14,1302.34ZM3031,1305a4,4,0,0,0-4,4h0a1,1,0,0,1-2,0,6,6,0,0,1,6-6A1,1,0,0,1,3031,1305Z" transform="translate(-3019.53 -1298.03)"/>
    </symbol>
</svg>