<svg xmlns="http://www.w3.org/2000/svg">
    <symbol id="icon-share" viewBox="0 0 34.06 34">
        <path d="M2674.03,1297a1.449,1.449,0,0,1,1.44,1.45,1.434,1.434,0,0,1-1.44,1.44,14.11,14.11,0,1,0,14.13,14.11,1.445,1.445,0,1,1,2.89,0,17.025,17.025,0,1,1-17.02-17h0Zm8.76,7.23a1.421,1.421,0,0,1,2.02-2l2.49,2.49a1.907,1.907,0,0,1,0,2.72l-2.49,2.49a1.421,1.421,0,0,1-2.01-2.01l0.42-.42h-1.83c-4.99,0-6.69,2.12-6.69,8.54a1.42,1.42,0,1,1-2.84,0c0-7.94,2.9-11.38,9.53-11.38h1.83Zm0,0" transform="translate(-2657 -1297)"/>
    </symbol>
    <symbol id="icon-heart" viewBox="0 0 35.94 32">
        <path d="M3052.79,1301.15a332.941,332.941,0,0,0-29.64,0,10.876,10.876,0,0,0,0,15.31l12.42,12.51a3.334,3.334,0,0,0,4.8,0l12.42-12.5a10.864,10.864,0,0,0,0-15.32h0Zm-1.61,13.7-12.41,12.51a1.135,1.135,0,0,1-1.6,0l-12.42-12.51a8.583,8.583,0,0,1,0-12.09,8.423,8.423,0,0,1,11.69-.2l1.53,1.34,1.52-1.34a8.433,8.433,0,0,1,11.69.25,8.6,8.6,0,0,1,0,12.04h0Zm0,0-20.79-11.15a4.738,4.738,0,0,0-3.38,1.43,4.866,4.866,0,0,0-1.4,3.43,0.56,0.56,0,1,0,1.12,0,3.774,3.774,0,0,1,1.07-2.63,3.665,3.665,0,0,1,2.59-1.08,0.575,0.575,0,0,0,0-1.15h0Zm0,0" transform="translate(-3020 -1298)"/>
    </symbol>
</svg>