<svg xmlns="http://www.w3.org/2000/svg">
    <symbol id="icon-like" viewBox="0 0 1024 1024">
        <path d="M861.577 428.695h-223.037c86.425-319.186-59.547-335.487-59.547-335.487-61.867 0-49.042 48.918-53.716 57.076 0 156.096-165.796 278.407-165.796 278.407v442.661c0 43.695 59.547 59.433 82.908 59.433h335.111c31.537 0 57.221-82.709 57.221-82.709 82.903-281.911 82.903-365.789 82.903-365.789 0.001-58.247-56.046-53.591-56.046-53.591v0 0zM861.577 428.695z"/>
        <path d="M267.943 428.841h-133.553c-27.581 0-28.006 27.090-28.006 27.090l27.581 446.441c0 28.416 28.464 28.416 28.464 28.416h115.593c24.081 0 23.865-18.798 23.865-18.798v-449.296c0-34.287-33.945-33.854-33.945-33.854v0 0zM267.943 428.841z"/>
    </symbol>
    <symbol id="icon-refresh" viewBox="0 0 1024 1024">
        <path d="M859 572a30 30 0 0 0-42-1L528 860V96a30 30 0 0 0-60 0v764L179 571a30 30 0 0 0-42 1 29 29 0 0 0-1 41l338 337a31 31 0 0 0 3 3 30 30 0 0 0 9 6v1h1a29 29 0 0 0 10 2h2a29 29 0 0 0 10-2h1v-1a30 30 0 0 0 9-6 31 31 0 0 0 3-3l338-337c11-11 11-30-1-41z"/>
    </symbol>
</svg>