<svg xmlns="http://www.w3.org/2000/svg">
    <!--首页 -->
    <!-- fill="#ff4bac" -->
    <symbol id="icon-index" viewBox="0 0 40 40">
        <path d="M78,1678a4,4,0,0,1-4-4v-19.21a3.852,3.852,0,0,1,1.333-2.98L91,1639a5.025,5.025,0,0,1,6,0l15.667,12.81a3.852,3.852,0,0,1,1.332,2.98V1674a4,4,0,0,1-4,4H78Zm23.779-11.46-4.243,4.24a5,5,0,0,1-7.071,0l-4.243-4.24a5,5,0,0,1,7.071-7.08L94,1660.17l0.707-.71A5,5,0,1,1,101.778,1666.54Z" transform="translate(-74 -1638)" fill-rule="evenodd"/>
    </symbol>
    <!--相亲 -->
    <symbol id="icon-date" viewBox="0 0 45 40">
        <path d="M297.189,1666.2A12.208,12.208,0,0,1,305,1677.54c0,0.17,0,.46-0.013.46H260.012c-0.007,0-.012-0.3-0.012-0.48a12.18,12.18,0,0,1,7.808-11.32,8.048,8.048,0,0,1-3.651-6.71,8.318,8.318,0,0,1,16.631,0,8.047,8.047,0,0,1-3.653,6.71,12.441,12.441,0,0,1,5.361,4.05,12.537,12.537,0,0,1,5.366-4.06,8.017,8.017,0,0,1-3.651-6.7,8.318,8.318,0,0,1,16.631,0A8.047,8.047,0,0,1,297.189,1666.2Zm-11.654-15.42a5,5,0,0,1-7.071,0l-4.242-4.24a5,5,0,0,1,7.071-7.08l0.707,0.71,0.707-.71a5,5,0,0,1,7.071,7.08Z" transform="translate(-260 -1638)" fill-rule="evenodd"/>
    </symbol>
    <!--排行榜 -->
    <symbol id="icon-rank" viewBox="0 0 36 38">
        <path d="M481,1655a11.994,11.994,0,0,1-10,11.82V1670h2v2h1a4,4,0,0,1,4,4v1H460v-1a4,4,0,0,1,4-4h1v-2h2v-3.18A11.994,11.994,0,0,1,457,1655s-6-2.69-6-6v-4a2,2,0,0,1,2-2h4v-2a2,2,0,0,1,2-2h20a2,2,0,0,1,2,2v2h4a2,2,0,0,1,2,2v4A6,6,0,0,1,481,1655Zm-26-10h-1.334a0.668,0.668,0,0,0-.666.67V1649c0,1.1,2,2,2,2v-6Zm19.923,6.49a1.18,1.18,0,0,0-1.121-.85l-1.946-.03a1.19,1.19,0,0,1-1.13-.88l-0.534-1.87a1.193,1.193,0,0,0-2.285-.04l-0.593,1.84a1.181,1.181,0,0,1-1.161.84l-1.937-.04a1.174,1.174,0,0,0-1.152.81,1.2,1.2,0,0,0,.39,1.36l1.64,1.31a1.2,1.2,0,0,1,.4,1.34l-0.65,1.99a1.2,1.2,0,0,0,.432,1.36,1.158,1.158,0,0,0,1.412,0l1.48-1.11a1.186,1.186,0,0,1,1.45.03l1.44,1.16a1.174,1.174,0,0,0,1.412.05,1.2,1.2,0,0,0,.477-1.35l-0.582-2.01a1.2,1.2,0,0,1,.444-1.32l1.681-1.24A1.216,1.216,0,0,0,474.923,1651.49ZM485,1645.67a0.669,0.669,0,0,0-.667-0.67H483v6a2,2,0,0,0,2-2v-3.33Z" transform="translate(-451 -1639)" fill-rule="evenodd"/>
    </symbol>
    <!--我的 -->
    <symbol id="icon-my" viewBox="0 0 40 40">
        <path d="M40,36a4,4,0,0,1-4,4H4a4,4,0,0,1-4-4A3.92,3.92,0,0,1,.05,35.5H0c0-6.024,6.82-11.051,15.9-12.234a12,12,0,1,1,8.2,0C33.18,24.448,40,29.475,40,35.5H39.95A3.981,3.981,0,0,1,40,36ZM22.894,17H17.106a3.367,3.367,0,0,0-.106.8A3.1,3.1,0,0,0,20,21a3.1,3.1,0,0,0,3-3.2A3.367,3.367,0,0,0,22.894,17Z" fill-rule="evenodd"/>
    </symbol>
    <!-- 右箭头 -->
    <symbol id="icon-arrow-right" viewBox="0 0 8 12.987">
        <path d="M14.707,32.415,8,38.944,14.707,45.4,16,44.139l-5.323-5.2L16,33.65Z" transform="translate(16 45.402) rotate(180)" fill="#c7c7cc"/>
    </symbol>
    <!-- 向下 -->
    <symbol id="icon-down" viewBox="0 0 16 8">
        <path d="M366,756l8,8,8-8H366Z" transform="translate(-366 -756)" fill-rule="evenodd"/>
    </symbol>
    <!-- 关闭 -->
    <symbol id="icon-close" viewBox="0 0 23.781 23.781">
        <path d="M462.485,765.314L454,756.828l-8.485,8.486a2,2,0,0,1-2.829-2.829L451.172,754l-8.486-8.485a2,2,0,0,1,2.829-2.829L454,751.172l8.485-8.486a2,2,0,0,1,2.829,2.829L456.828,754l8.486,8.485A2,2,0,0,1,462.485,765.314Z" transform="translate(-442.125 -742.125)"/>
    </symbol>
    <!-- 其他 -->
    <symbol id="icon-else" viewBox="0 0 6 26">    
        <path d="M342,745a3,3,0,1,1,3-3A3,3,0,0,1,342,745Zm0-10a3,3,0,1,1,3-3A3,3,0,0,1,342,735Zm0,14a3,3,0,1,1-3,3A3,3,0,0,1,342,749Z" transform="translate(-339 -729)"/>
    </symbol>
    <!-- 男 -->
    <symbol id="icon-man" viewBox="0 0 7.21 7.21">
        <path d="M4.21,1a2,2,0,0,1,0,4,1.94,1.94,0,0,1-1.16-.38l-.28-.19-.19-.28A2,2,0,0,1,4.21,1m0-1A3,3,0,0,0,1.77,4.73L1,5.51v-.8a.5.5,0,0,0-.5-.5.51.51,0,0,0-.5.5v2a.36.36,0,0,0,0,.11s0,.06,0,.08a.54.54,0,0,0,.1.16h0a.54.54,0,0,0,.16.1l.08,0,.11,0h2a.5.5,0,1,0,0-1H1.71l.77-.77A3,3,0,0,0,6.33.88,3,3,0,0,0,4.21,0Z" fill="#fff"/>
    </symbol>
    <!-- 女 -->
    <symbol id="icon-female" viewBox="0 0 7.39 7.39">
        <path d="M4.39,1A2,2,0,0,1,5.8,4.41a2,2,0,0,1-2.56.21L3,4.43l-.2-.28A2,2,0,0,1,4.39,1m0-1A3,3,0,0,0,2.27.88,3,3,0,0,0,2,4.73l-.35.35L.94,4.41a.54.54,0,0,0-.35-.14.54.54,0,0,0-.36.14.51.51,0,0,0,0,.71l.67.67-.75.75a.48.48,0,0,0,0,.7.47.47,0,0,0,.35.15.47.47,0,0,0,.35-.15l.75-.75.75.75a.51.51,0,0,0,.36.15.5.5,0,0,0,.35-.85l-.75-.75.35-.35A3,3,0,1,0,4.39,0Z" fill="#fff"/>
    </symbol>
    <!-- 筛选 -->
    <symbol id="icon-selected" viewBox="0 0 14 14">
        <path d="M45.682,14a.545.545,0,0,1-.567-.525V5.4a.466.466,0,0,1,.158-.35l3.781-3.938H38.814l3.812,3.938a.518.518,0,0,1,.158.35v4.871l.914.7a.521.521,0,0,1,.095.758.625.625,0,0,1-.819.088l-1.134-.846a.544.544,0,0,1-.221-.408V5.6L37.081.9a.5.5,0,0,1-.095-.583A.587.587,0,0,1,37.522,0H50.345a.587.587,0,0,1,.536.321A.507.507,0,0,1,50.786.9L46.28,5.6v7.875a.555.555,0,0,1-.6.525Z" transform="translate(-36.933)"/>
    </symbol>
</svg>