<svg xmlns="http://www.w3.org/2000/svg">
    <!-- 数据 -->
    <symbol id="icon-data" viewBox="0 0 15 16">
        <path d="M2,8H1A1,1,0,0,0,0,9v7H3V9A1,1,0,0,0,2,8Z" fill="#945DFF"/>
        <path d="M6,11H5a1,1,0,0,0-1,1v4H7V12A1,1,0,0,0,6,11Z" fill="#FFC96B"/>
        <path d="M10,0H9A1,1,0,0,0,8,1V16h3V1A1,1,0,0,0,10,0Z" fill="#FF6BE1"/>
        <path d="M14,5H13a1,1,0,0,0-1,1v9.94a.06.06,0,0,0,.06.06H15V6A1,1,0,0,0,14,5Z" fill="#FF896B"/>
    </symbol>
    <!-- 聊天 -->
    <symbol id="icon-chat" viewBox="0 0 14 12">
        <path d="M12,0H2A2,2,0,0,0,0,2V8a2,2,0,0,0,2,2H5l2,2,2-2h3a2,2,0,0,0,2-2V2A2,2,0,0,0,12,0ZM7,4A1,1,0,1,1,6,5,1,1,0,0,1,7,4ZM3,6A1,1,0,1,1,4,5,1,1,0,0,1,3,6Zm8,0a1,1,0,1,1,1-1A1,1,0,0,1,11,6Z" fill="#fff"/>
    </symbol>
    <!-- 麦克风 -->
    <symbol id="icon-microphone" viewBox="0 0 12 16">
        <path d="M11.5,6.5A.5.5,0,0,0,11,7V8A5,5,0,0,1,1,8V7a.5.5,0,0,0-.5-.5A.5.5,0,0,0,0,7V8a6,6,0,0,0,5.5,6v1h-3a.5.5,0,0,0-.5.5.51.51,0,0,0,.5.5h7a.5.5,0,0,0,.5-.5.5.5,0,0,0-.5-.5h-3V14A6,6,0,0,0,12,8V7A.5.5,0,0,0,11.5,6.5Z" fill="#fff"/>
        <path d="M6,12a4,4,0,0,0,4-4V4A4,4,0,0,0,2,4V8A4,4,0,0,0,6,12Z" fill="#fff"/>
    </symbol>
    <!-- 语音 -->
    <symbol id="icon-voice" viewBox="0 0 22 11.999">
        <path d="M5001,288V278a1,1,0,0,1,2,0v10a1,1,0,0,1-2,0Zm-10,0V278a1,1,0,0,1,2,0v10a1,1,0,0,1-2,0Zm15-2v-6a1,1,0,0,1,2,0v6a1,1,0,1,1-2,0Zm-10,0v-6a1,1,0,0,1,2,0v6a1,1,0,1,1-2,0Zm-10,0v-6a1,1,0,0,1,2,0v6a1,1,0,1,1-2,0Z" transform="translate(-4986 -277.001)" fill="#fff"/>
    </symbol>
</svg>