<svg xmlns="http://www.w3.org/2000/svg" viewBox="0 0 24 22"><title>邀请</title><g id="图层_2" data-name="图层 2"><g id="图层_1-2" data-name="图层 1"><path d="M23.5,6h-.4a1,1,0,0,0-.64.23l-9.82,8.23a1,1,0,0,1-1.28,0L1.54,6.23A1,1,0,0,0,.9,6H.5a.5.5,0,0,0-.5.5V20a2,2,0,0,0,2,2H22a2,2,0,0,0,2-2V6.5A.5.5,0,0,0,23.5,6Z"/><path d="M12.64,13.16l8.36-7V1.5A1.5,1.5,0,0,0,19.5,0H4.5A1.5,1.5,0,0,0,3,1.5V6.15l8.36,7A1,1,0,0,0,12.64,13.16ZM9.53,6.56a1.5,1.5,0,0,1,2.11-2.12l.36.35.35-.35a1.5,1.5,0,0,1,2.12,2.12L12.71,8.33a1,1,0,0,1-1.42,0Z"/></g></g></svg>