<svg xmlns="http://www.w3.org/2000/svg">
    <!-- 收藏 -->
    <symbol id="icon-collection" viewBox="0 0 13.85 13.78">
        <path d="M7.83.58,9.17,3.43A1,1,0,0,0,9.93,4L13,4.46a1,1,0,0,1,.57,1.69L11.28,8.5a1,1,0,0,0-.27.86l.53,3.25a1,1,0,0,1-1.47,1L7.41,12.18a1,1,0,0,0-1,0L3.78,13.65a1,1,0,0,1-1.47-1l.53-3.25a.94.94,0,0,0-.27-.86L.29,6.15A1,1,0,0,1,.85,4.46L3.93,4a1,1,0,0,0,.75-.56L6,.58A1,1,0,0,1,7.83.58Z" />
    </symbol>
    <!-- 邀请 -->
    <symbol id="icon-invite" viewBox="0 0 24 22">
        <path d="M23.5,6h-.4a1,1,0,0,0-.64.23l-9.82,8.23a1,1,0,0,1-1.28,0L1.54,6.23A1,1,0,0,0,.9,6H.5a.5.5,0,0,0-.5.5V20a2,2,0,0,0,2,2H22a2,2,0,0,0,2-2V6.5A.5.5,0,0,0,23.5,6Z" />
        <path d="M12.64,13.16l8.36-7V1.5A1.5,1.5,0,0,0,19.5,0H4.5A1.5,1.5,0,0,0,3,1.5V6.15l8.36,7A1,1,0,0,0,12.64,13.16ZM9.53,6.56a1.5,1.5,0,0,1,2.11-2.12l.36.35.35-.35a1.5,1.5,0,0,1,2.12,2.12L12.71,8.33a1,1,0,0,1-1.42,0Z" />
    </symbol>
    <!-- 相机 -->
    <symbol id="icon-camera" viewBox="0 0 20 16">
        <path d="M18,2H9A2,2,0,0,0,7,0H5A2,2,0,0,0,3,2H2A2,2,0,0,0,0,4V14a2,2,0,0,0,2,2H18a2,2,0,0,0,2-2V4A2,2,0,0,0,18,2ZM5,1H7A1,1,0,0,1,8,2H4A1,1,0,0,1,5,1ZM19,14a1,1,0,0,1-1,1H2a1,1,0,0,1-1-1V4A1,1,0,0,1,2,3H18a1,1,0,0,1,1,1Z" />
        <path d="M10,6.5a.5.5,0,0,0,0,1,1.5,1.5,0,0,1,1.36.87.52.52,0,0,0,.67.25A.5.5,0,0,0,12.27,8,2.51,2.51,0,0,0,10,6.5Z" />
        <path d="M10,4.5A4.5,4.5,0,1,0,14.5,9,4.51,4.51,0,0,0,10,4.5Zm0,8A3.5,3.5,0,1,1,13.5,9,3.5,3.5,0,0,1,10,12.5Z" />
        <path d="M17.5,4h-2a.5.5,0,0,0-.5.5.5.5,0,0,0,.5.5h2a.5.5,0,0,0,.5-.5A.5.5,0,0,0,17.5,4Z" />
    </symbol>
    <!-- 收费设置 -->
    <symbol id="icon-charge-set" viewBox="0 0 24 22">
        <path d="M22,4H2A2,2,0,0,0,0,6V20a2,2,0,0,0,2,2H22a2,2,0,0,0,2-2V6A2,2,0,0,0,22,4Zm-6.9,8.26V13.8H12.91v.63h2.17V16H12.91v1.85H11.19V16H9V14.43h2.18V13.8H9V12.26h1.93L8,8.22H10l2.17,2.83,1.93-2.86H16l-2.82,4.07Z"/>
        <rect x="2" width="20" height="3" rx="0.5" ry="0.5"/>
    </symbol>
    <!-- 单身管理 -->
    <symbol id="icon-single-manage" viewBox="0 0 24 22">
        <path d="M22,4H2A2,2,0,0,0,0,6v4a2,2,0,0,0,2,2H22a2,2,0,0,0,2-2V6A2,2,0,0,0,22,4ZM14,9H10a1,1,0,0,1,0-2h4a1,1,0,0,1,0,2Z" />
        <path d="M22,14H2a2,2,0,0,0-2,2v4a2,2,0,0,0,2,2H22a2,2,0,0,0,2-2V16A2,2,0,0,0,22,14Zm-8,5H10a1,1,0,0,1,0-2h4a1,1,0,0,1,0,2Z" />
        <path d="M18.8.6A3,3,0,0,0,17,0H7A3,3,0,0,0,5.2.6l-3,2.22A.1.1,0,0,0,2.3,3H21.7a.1.1,0,0,0,.06-.18Z" />
    </symbol>
</svg>