<svg xmlns="http://www.w3.org/2000/svg">
    <!-- 收藏 -->
    <symbol id="icon-collection" viewBox="0 0 13.85 13.78">
        <path d="M7.83.58,9.17,3.43A1,1,0,0,0,9.93,4L13,4.46a1,1,0,0,1,.57,1.69L11.28,8.5a1,1,0,0,0-.27.86l.53,3.25a1,1,0,0,1-1.47,1L7.41,12.18a1,1,0,0,0-1,0L3.78,13.65a1,1,0,0,1-1.47-1l.53-3.25a.94.94,0,0,0-.27-.86L.29,6.15A1,1,0,0,1,.85,4.46L3.93,4a1,1,0,0,0,.75-.56L6,.58A1,1,0,0,1,7.83.58Z" />
    </symbol>
    <!-- 邀请 -->
    <symbol id="icon-invite" viewBox="0 0 24 22">
        <path d="M23.5,6h-.4a1,1,0,0,0-.64.23l-9.82,8.23a1,1,0,0,1-1.28,0L1.54,6.23A1,1,0,0,0,.9,6H.5a.5.5,0,0,0-.5.5V20a2,2,0,0,0,2,2H22a2,2,0,0,0,2-2V6.5A.5.5,0,0,0,23.5,6Z" />
        <path d="M12.64,13.16l8.36-7V1.5A1.5,1.5,0,0,0,19.5,0H4.5A1.5,1.5,0,0,0,3,1.5V6.15l8.36,7A1,1,0,0,0,12.64,13.16ZM9.53,6.56a1.5,1.5,0,0,1,2.11-2.12l.36.35.35-.35a1.5,1.5,0,0,1,2.12,2.12L12.71,8.33a1,1,0,0,1-1.42,0Z" />
    </symbol>
    <!-- 相机 -->
    <symbol id="icon-camera" viewBox="0 0 20 16">
        <path d="M18,2H9A2,2,0,0,0,7,0H5A2,2,0,0,0,3,2H2A2,2,0,0,0,0,4V14a2,2,0,0,0,2,2H18a2,2,0,0,0,2-2V4A2,2,0,0,0,18,2ZM5,1H7A1,1,0,0,1,8,2H4A1,1,0,0,1,5,1ZM19,14a1,1,0,0,1-1,1H2a1,1,0,0,1-1-1V4A1,1,0,0,1,2,3H18a1,1,0,0,1,1,1Z" />
        <path d="M10,6.5a.5.5,0,0,0,0,1,1.5,1.5,0,0,1,1.36.87.52.52,0,0,0,.67.25A.5.5,0,0,0,12.27,8,2.51,2.51,0,0,0,10,6.5Z" />
        <path d="M10,4.5A4.5,4.5,0,1,0,14.5,9,4.51,4.51,0,0,0,10,4.5Zm0,8A3.5,3.5,0,1,1,13.5,9,3.5,3.5,0,0,1,10,12.5Z" />
        <path d="M17.5,4h-2a.5.5,0,0,0-.5.5.5.5,0,0,0,.5.5h2a.5.5,0,0,0,.5-.5A.5.5,0,0,0,17.5,4Z" />
    </symbol>
    <!-- 收费设置 -->
    <symbol id="icon-charge-set" viewBox="0 0 24 22">
        <path d="M23.5,6h-.4a1,1,0,0,0-.64.23l-9.82,8.23a1,1,0,0,1-1.28,0L1.54,6.23A1,1,0,0,0,.9,6H.5a.5.5,0,0,0-.5.5V20a2,2,0,0,0,2,2H22a2,2,0,0,0,2-2V6.5A.5.5,0,0,0,23.5,6Z" />
        <path d="M12.64,13.16l8.36-7V1.5A1.5,1.5,0,0,0,19.5,0H4.5A1.5,1.5,0,0,0,3,1.5V6.15l8.36,7A1,1,0,0,0,12.64,13.16ZM9.53,6.56a1.5,1.5,0,0,1,2.11-2.12l.36.35.35-.35a1.5,1.5,0,0,1,2.12,2.12L12.71,8.33a1,1,0,0,1-1.42,0Z" />
    </symbol>
    <!-- 单身管理 -->
    <symbol id="icon-single-manage" viewBox="0 0 24 22">
        <path d="M22,4H2A2,2,0,0,0,0,6v4a2,2,0,0,0,2,2H22a2,2,0,0,0,2-2V6A2,2,0,0,0,22,4ZM14,9H10a1,1,0,0,1,0-2h4a1,1,0,0,1,0,2Z" />
        <path d="M22,14H2a2,2,0,0,0-2,2v4a2,2,0,0,0,2,2H22a2,2,0,0,0,2-2V16A2,2,0,0,0,22,14Zm-8,5H10a1,1,0,0,1,0-2h4a1,1,0,0,1,0,2Z" />
        <path d="M18.8.6A3,3,0,0,0,17,0H7A3,3,0,0,0,5.2.6l-3,2.22A.1.1,0,0,0,2.3,3H21.7a.1.1,0,0,0,.06-.18Z" />
    </symbol>
    <!-- 挂靠成员 -->
    <symbol id="icon-members" viewBox="0 0 24 22">
        <path d="M23.93,19,19.79,3.51A2,2,0,0,0,17.34,2.1l-1.93.51A2,2,0,0,0,14,4V2a2,2,0,0,0-2-2H10A2,2,0,0,0,8,2V20a2,2,0,0,0,2,2h2a2,2,0,0,0,2-2V5.08l4.14,15.44a2,2,0,0,0,2.45,1.41l1.93-.52A2,2,0,0,0,23.93,19ZM12,20H10a1,1,0,0,1,0-2h2a1,1,0,0,1,0,2Zm0-4H10a1,1,0,0,1,0-2h2a1,1,0,0,1,0,2Z" />
            <path d="M4,0H2A2,2,0,0,0,0,2V20a2,2,0,0,0,2,2H4a2,2,0,0,0,2-2V2A2,2,0,0,0,4,0ZM4,20H2a1,1,0,0,1,0-2H4a1,1,0,0,1,0,2Zm0-4H2a1,1,0,0,1,0-2H4a1,1,0,0,1,0,2ZM4,4H2A1,1,0,0,1,2,2H4A1,1,0,0,1,4,4Z" />
    </symbol>
    <!-- 挂靠收费 -->
    <symbol id="icon-charge" viewBox="0 0 24 21.99">
        <path d="M22,5H2A2,2,0,0,0,0,6.88V20.11A1.94,1.94,0,0,0,2,22H22a1.94,1.94,0,0,0,2-1.88V6.88A2,2,0,0,0,22,5Zm-6.9,7.77v1.53H12.91v.63h2.17v1.54H12.91V18.3H11.19V16.46H9V14.92h2.18v-.63H9V12.76h1.93L8,8.71H10l2.17,2.84,1.93-2.86H16l-2.82,4.06Z" />
        <path d="M21,1.48A2,2,0,0,0,18.58.07L3.93,4H21.7Z" />
    </symbol>
</svg>