<svg xmlns="http://www.w3.org/2000/svg">
    <!-- 相册 -->
    <symbol id="icon-ablum" viewBox="0 0 24 20">
        <path d="M675,222h0v10a2,2,0,0,1-2,2H653a2,2,0,0,1-2-2V216a2,2,0,0,1,2-2h20a2,2,0,0,1,2,2v2h0v4Zm-22,7,4.679-7.478a2,2,0,0,1,2.733-.732L673,228v-6a6,6,0,0,1-6-6H653v13Z" transform="translate(-651 -214)" fill="#fff"/>
    </symbol>
    <!-- 续费会员 -->
    <symbol id="icon-recharge" viewBox="0 0 44 44">
        <path d="M101,448h20l10,12H91ZM91,460h40l-17.53,23.184A1.955,1.955,0,0,1,112,484a2.062,2.062,0,0,1-1.568-.733Z" transform="translate(-89 -444)" fill="#ffc96b"/>
        <path d="M119,460l-6,24,18-24H119Z" transform="translate(-89 -444)" fill="#ffa36b"/>
        <path d="M119,460l-5-12h7l10,12H119Z" transform="translate(-89 -444)" fill="#ffa168" style="opacity:0.5"/>
        <path d="M103,460l5-12h-7L91,460h12Z" transform="translate(-89 -444)" fill="#ffe9db" style="opacity:0.5"/>
    </symbol>
    <!-- 我要曝光 -->
    <symbol id="icon-exposure" viewBox="0 0 44 44">
         <path d="M285,481a23.669,23.669,0,0,1-22-15,23.633,23.633,0,0,1,44,0A23.669,23.669,0,0,1,285,481Zm0-25a10,10,0,1,1-10,10A10,10,0,0,1,285,456Z" transform="translate(-263 -444)" fill="#ff9e2c"/>
        <path d="M285,474a8,8,0,0,1-4.974-14.259,2,2,0,1,0,2.955-1.474A8,8,0,1,1,285,474Z" transform="translate(-263 -444)" fill="#ffca4b"/>
    </symbol>
    <!-- 自助广告 -->
    <symbol id="icon-self-ad" viewBox="0 0 42 42.001">
        <rect y="6" width="42" height="30" rx="4" ry="4" fill="#ce59ff"/>
        <path d="M452,473l1-3h6l1,3h3l-5-15h-4l-5,15h3Zm6-6h-4l2-5Zm6,6h6c7.422,0,6.607-7.14,6.607-6.946,0-7.34-6.865-7.054-6.607-7.054h-6v14Zm6-11c4.483,0,4.617,8,0,8h-3v-8h3Z" transform="translate(-442 -445)" fill="#f9b3ff"/>
    </symbol>
    <!-- 红娘入驻 -->
    <symbol id="icon-matchmaker" viewBox="0 0 36 36.001">
        <path d="M3,15H33a0,0,0,0,1,0,0V32a3,3,0,0,1-3,3H6a3,3,0,0,1-3-3V15A0,0,0,0,1,3,15Z" fill="#ff5e75"/>
        <path d="M656,462.5c0,1.381-2.239,2.5-5,2.5-2.419,0-4.436-.859-4.9-2h-3.2c-0.463,1.141-2.48,2-4.9,2s-4.436-.859-4.9-2h-3.2c-0.463,1.141-2.48,2-4.9,2-2.762,0-5-1.119-5-2.5a1.4,1.4,0,0,1,.217-0.69,1.924,1.924,0,0,1-.022-1.6l4.285-10A1.961,1.961,0,0,1,626.319,449h23.362a1.96,1.96,0,0,1,1.838,1.212l4.286,10a1.928,1.928,0,0,1-.022,1.6A1.4,1.4,0,0,1,656,462.5Z" transform="translate(-620 -448)" fill="#ff9fad"/>
    </symbol>
    <!-- 个人主页 -->
    <symbol id="icon-personal-page" viewBox="0 0 32 32">
        <path d="M52,623H28a2,2,0,0,1-2-2v-1a14,14,0,0,1,8.509-12.88,9,9,0,1,1,10.981,0A14,14,0,0,1,54,620v1A2,2,0,0,1,52,623Zm-6-23a6,6,0,1,0-6,6A6,6,0,0,0,46,600Zm-6,9a11,11,0,0,0-11,11H51A11,11,0,0,0,40,609Zm0-8c1.657,0,3-.657,3,1a3,3,0,0,1-6,0C37,600.343,38.343,601,40,601Z" transform="translate(-24 -591)" fill="#945dff"/>
    </symbol>
    <!-- 个人动态 -->
    <symbol id="icon-personal-active" viewBox="0 0 32 32">
        <path d="M46.966,685.333A1.452,1.452,0,0,1,47,685.5a1.479,1.479,0,0,1-.1.5l0,0.017c-0.011.029-.015,0.06-0.027,0.088A5,5,0,0,1,42,690H40a5,5,0,0,1-4.868-3.9c-0.013-.028-0.017-0.059-0.027-0.088l0-.017a1.479,1.479,0,0,1-.1-0.5,1.452,1.452,0,0,1,.034-0.167C35.026,685.221,35,685.114,35,685h0.1a1.479,1.479,0,0,1,2.8,0H38a2,2,0,0,0,2,2h2a2,2,0,0,0,2-2h0.1a1.479,1.479,0,0,1,2.8,0H47C47,685.114,46.974,685.221,46.966,685.333Zm8.557-2.41-3.586,3.228a3.127,3.127,0,0,0-.971,3.175l1.194,4.692a3.134,3.134,0,0,1-1.071,3.261,3.269,3.269,0,0,1-3.452.494l-5.723-2.459a3.234,3.234,0,0,0-2.645,0l-5.723,2.459a3.269,3.269,0,0,1-3.452-.494,3.134,3.134,0,0,1-1.071-3.261l1.194-4.692a3.126,3.126,0,0,0-.971-3.175l-3.586-3.228a3.132,3.132,0,0,1-.943-3.28,3.2,3.2,0,0,1,2.564-2.294l5.212-.96a3.187,3.187,0,0,0,2.257-1.577l2.977-5.117a3.329,3.329,0,0,1,5.729,0l2.977,5.117a3.187,3.187,0,0,0,2.257,1.577l5.212,0.96a3.2,3.2,0,0,1,2.564,2.294A3.132,3.132,0,0,1,55.524,682.923ZM53.5,680.555c-0.265-.889-1.976-1.512-2.923-1.683l-3.909-.7a2.394,2.394,0,0,1-1.692-1.157l-2.233-3.753c-0.454-.763-1.234-2.2-2.148-2.2s-1.694,1.434-2.148,2.2l-2.233,3.753a2.394,2.394,0,0,1-1.692,1.157l-3.909.7c-0.947.171-2.659,0.794-2.923,1.683s1,1.78,1.707,2.405l2.689,2.367a2.262,2.262,0,0,1,.728,2.329l-0.9,3.441c-0.235.9-.658,2.3,0.083,2.9s2.422,0.223,3.31-.15l4.292-1.8a2.48,2.48,0,0,1,1.984,0l4.292,1.8c0.888,0.373,2.383.751,3.123,0.15s0.5-2,.269-2.9l-0.9-3.441a2.263,2.263,0,0,1,.728-2.329l2.689-2.367C52.5,682.335,53.763,681.445,53.5,680.555Z" transform="translate(-24.594 -667.063)" fill="#ffca4b"/>
    </symbol>
    <!-- 日签卡 -->
    <symbol id="icon-poster" viewBox="0 0 32 32">
        <path d="M51,773H29a3,3,0,0,1-3-3V748a3,3,0,0,1,3-3h4v-2a2,2,0,0,1,4,0v2h6v-2a2,2,0,0,1,4,0v2h4a3,3,0,0,1,3,3v22A3,3,0,0,1,51,773Zm0-25H47v1a2,2,0,0,1-4,0v-1H37v1a2,2,0,0,1-4,0v-1H29v22H51V748Zm-8,8v12H39v-8H37v-4l5-1A0.993,0.993,0,0,1,43,756Z" transform="translate(-24 -741)" fill="#009cff"/>
    </symbol>
    <!-- 我的收支 -->
    <symbol id="icon-bills" viewBox="0 0 32 32">
        <path d="M53,846H27a3,3,0,0,1-3-3V825a3,3,0,0,1,3-3h5.354l12.853-5.9a2.994,2.994,0,0,1,2.8.748L51.211,822H53a3,3,0,0,1,3,3v18A3,3,0,0,1,53,846Zm-7-27-7.2,3h9Zm7,6H27v18H53V825Zm-5,7a2,2,0,1,1-2,2A2,2,0,0,1,48,832Z" transform="translate(-24 -815)" fill="#fb4d4a"/>
    </symbol>
    <!-- 隐私设置 -->
    <symbol id="icon-privacy" viewBox="0 0 32 32">
        <path d="M51,953H29a3,3,0,0,1-3-3V935a3,3,0,0,1,3-3h2v-2a9,9,0,0,1,18,0v2h2a3,3,0,0,1,3,3v15A3,3,0,0,1,51,953Zm-5-23a6,6,0,0,0-12,0v2H46v-2Zm5,5H29v15H51V935Zm-11,3a2.993,2.993,0,0,1,1,5.816V946a1,1,0,0,1-2,0v-2.184A2.993,2.993,0,0,1,40,938Z" transform="translate(-24 -921)" fill="#999"/>
    </symbol>
    <!-- 关于我们 -->
    <symbol id="icon-about-us" viewBox="0 0 32 32">
        <path d="M40,1027a16,16,0,1,1,16-16A16,16,0,0,1,40,1027Zm0-29a13,13,0,1,0,13,13A13,13,0,0,0,40,998Zm0,23a2,2,0,1,1,2-2A2,2,0,0,1,40,1021Zm0-6a2,2,0,0,1-2-2v-10a2,2,0,0,1,4,0v10A2,2,0,0,1,40,1015Z" transform="translate(-24 -995)" fill="#999"/>
    </symbol>
    <!-- 意见反馈 -->
    <symbol id="icon-opionion" viewBox="0 0 32 32">
        <path d="M52,1101H28a3,3,0,0,1-3-3v-24a3,3,0,0,1,3-3H39.5a1.5,1.5,0,0,1,0,3H28v24H52v-12.5a1.5,1.5,0,0,1,3,0V1098A3,3,0,0,1,52,1101Zm-16.864-8.51a1.5,1.5,0,0,1-2.121-2.13l14.849-14.85a1.5,1.5,0,0,1,2.121,2.13Z" transform="translate(-24 -1070)" fill="#999"/>
    </symbol>
    <!-- 马甲设置 -->
    <symbol id="icon-jacket" viewBox="0 0 32 32">
        <path d="M52,1102H28a2.151,2.151,0,0,1-2-2v-16s4-3.1,4-14h4l0.017,0.05A6.916,6.916,0,0,0,40,1073a6.916,6.916,0,0,0,5.983-2.95L46,1070h4c0,14.16,4,14,4,14v16A2.151,2.151,0,0,1,52,1102Zm-19-26s0.327,6.57-4,10v13h9v-9Zm7,0a12.746,12.746,0,0,1-3.228-.39L40,1085.83l3.228-10.22A12.746,12.746,0,0,1,40,1076Zm11,10c-4.557-2.7-4-10-4-10l-5,14v9h9v-13Z" transform="translate(-24 -1070)" fill="#999"/>
    </symbol>
</svg>