<svg xmlns="http://www.w3.org/2000/svg">
    <!-- 我的主页 -->
    <symbol id="icon-my-page" viewBox="0 0 16 16">
        <path d="M16,14.85a8,8,0,0,0-4.15-6.66A4.93,4.93,0,0,0,13,5,5,5,0,0,0,3,5,4.93,4.93,0,0,0,4.18,8.19,8,8,0,0,0,0,14.85.8.8,0,0,0,0,15a1,1,0,0,0,1,1H15a1,1,0,0,0,1-1A.8.8,0,0,0,16,14.85ZM4,5A4,4,0,1,1,8,9,4,4,0,0,1,4,5ZM1,15v-.11A7,7,0,0,1,4.77,9a4.84,4.84,0,0,0,1.07.68,1.09,1.09,0,0,0-.34.82c0,.55.34,1,.75,1A5.21,5.21,0,0,0,8,11a5.21,5.21,0,0,0,1.75.5c.41,0,.75-.45.75-1a1.09,1.09,0,0,0-.34-.82A4.84,4.84,0,0,0,11.23,9,7,7,0,0,1,15,14.89V15Z" fill="#666"/>
    </symbol>
    <!-- 私聊信息 -->
    <symbol id="icon-chat" viewBox="0 0 16 16">
        <path class="cls-1" d="M14,0H2A2,2,0,0,0,0,2V12a2,2,0,0,0,2,2H6l2,2,2-2h4a2,2,0,0,0,2-2V2A2,2,0,0,0,14,0Zm1,12a1,1,0,0,1-1,1H9.59l-.3.29L8,14.59l-1.29-1.3L6.41,13H2a1,1,0,0,1-1-1V2A1,1,0,0,1,2,1H14a1,1,0,0,1,1,1Z" fill="#666"/>
        <circle class="cls-1" cx="4" cy="7" r="1" fill="#666"/>
        <circle class="cls-1" cx="8" cy="7" r="1" fill="#666"/>
        <circle class="cls-1" cx="12" cy="7" r="1" fill="#666"/>
    </symbol>
    <!-- 申请提现 -->
    <symbol id="icon-apply-cash" viewBox="0 0 16 16">
        <path class="cls-1" d="M14,2H12.71l-.14-.52A2,2,0,0,0,10.64,0a1.86,1.86,0,0,0-.52.07L2.91,2H2A2,2,0,0,0,0,4V14a2,2,0,0,0,2,2H14a2,2,0,0,0,2-2V4A2,2,0,0,0,14,2ZM10.38,1a1.09,1.09,0,0,1,.26,0,1,1,0,0,1,1,.74l.07.26H6.77ZM15,14a1,1,0,0,1-1,1H2a1,1,0,0,1-1-1V4A1,1,0,0,1,2,3H14a1,1,0,0,1,1,1Z" fill="#666"/>
        <circle cx="13" cy="9" r="1" fill="#666"/>
    </symbol>
    <!-- 我的订单 -->
    <symbol id="icon-my-order" viewBox="0 0 14 16">
        <path d="M12,1H10.91A1.51,1.51,0,0,0,9.5,0h-5A1.51,1.51,0,0,0,3.09,1H2A2,2,0,0,0,0,3V14a2,2,0,0,0,2,2H12a2,2,0,0,0,2-2V3A2,2,0,0,0,12,1ZM4.5,1h5a.5.5,0,0,1,0,1h-5a.5.5,0,0,1,0-1ZM13,14a1,1,0,0,1-1,1H2a1,1,0,0,1-1-1V3A1,1,0,0,1,2,2H3.09A1.51,1.51,0,0,0,4.5,3h5a1.51,1.51,0,0,0,1.41-1H12a1,1,0,0,1,1,1Z" fill="#666"/>
        <path d="M10.5,6h-7a.5.5,0,0,0,0,1h7a.5.5,0,0,0,0-1Z" fill="#666"/>
        <path d="M8.5,10h-5a.5.5,0,0,0,0,1h5a.5.5,0,0,0,0-1Z" fill="#666"/>
    </symbol>
    <!-- 个人设置 -->
    <symbol id="icon-setting" viewBox="0 0 15.39 14">
        <path class="cls-1" d="M15.13,6,12.27,1a2,2,0,0,0-1.73-1H4.86A2,2,0,0,0,3.12,1L.26,6a2,2,0,0,0,0,2l2.86,5a2,2,0,0,0,1.74,1h5.68a2,2,0,0,0,1.73-1l2.86-5A2,2,0,0,0,15.13,6ZM14.26,7.5l-2.86,5a1,1,0,0,1-.86.5H4.86A1,1,0,0,1,4,12.5l-2.86-5a1,1,0,0,1,0-1L4,1.5A1,1,0,0,1,4.86,1h5.68a1,1,0,0,1,.86.5l2.86,5A1,1,0,0,1,14.26,7.5Z" fill="#666"/>
        <path class="cls-1" d="M7.7,5a2,2,0,1,0,2,2A2,2,0,0,0,7.7,5Zm0,3a1,1,0,1,1,1-1A1,1,0,0,1,7.7,8Z" fill="#666"/>
    </symbol>
    <!-- 马甲设置 -->
    <symbol id="icon-weskit" viewBox="0 0 12.96 14.84">
        <path d="M4.81,11.4H2.3a.5.5,0,1,0,0,1H4.81a.5.5,0,1,0,0-1Z" fill="#666"/>
        <path d="M12.68,5.47A7.59,7.59,0,0,1,11.17,1a1,1,0,0,0-1-.95H9.91a.91.91,0,0,0-.32.06.49.49,0,0,0-.47.29C9.05.51,9,.64,8.9.78l-.05.1a2.39,2.39,0,0,1-2.39,1.4h0C4.7,2.28,3.85.36,3.84.34A.51.51,0,0,0,3.38.06,1,1,0,0,0,3.05,0H2.76a1,1,0,0,0-1,.93A8.28,8.28,0,0,1,.26,5.48,1,1,0,0,0,0,6.14v7.7a1,1,0,0,0,1,1H5.93a1,1,0,0,0,.55-.18,1,1,0,0,0,.55.18H12a1,1,0,0,0,1-1V6.16A1.06,1.06,0,0,0,12.68,5.47ZM5.93,12.84a1,1,0,0,1-1,1H2a1,1,0,0,1-1-1V6.48a1,1,0,0,1,.21-.59A9.57,9.57,0,0,0,2.76,1h.29a11.3,11.3,0,0,1,.88,2.29,16.82,16.82,0,0,0,1.85,3.9,1,1,0,0,1,.15.52ZM6.48,6.4A14.5,14.5,0,0,1,4.9,3.05s0-.06,0-.14a3.1,3.1,0,0,0,1.47.37h0a3.7,3.7,0,0,0,.37,0A3.16,3.16,0,0,0,8.08,3l0,.07A14.5,14.5,0,0,1,6.48,6.4ZM12,12.84a1,1,0,0,1-1,1H8a1,1,0,0,1-1-1V7.71a1,1,0,0,1,.15-.52A16.56,16.56,0,0,0,9,3.32a12.87,12.87,0,0,1,.67-1.87c.05-.09.09-.19.14-.28L9.91,1h.26a8.84,8.84,0,0,0,1.56,4.9,1,1,0,0,1,.23.62Z" fill="#666"/>
        <path d="M10.75,11.4H8.24a.5.5,0,0,0,0,1h2.51a.5.5,0,0,0,0-1Z" fill="#666"/>
    </symbol>
</svg>