<svg xmlns="http://www.w3.org/2000/svg">
    <!-- 播放 -->
    <symbol id="icon-play" viewBox="0 0 5 7">
        <path d="M4.789,3.1.691.086A.411.411,0,0,0,.235.063.5.5,0,0,0,0,.494V6.512a.5.5,0,0,0,.233.434.411.411,0,0,0,.457-.022l4.1-2.994a.518.518,0,0,0,0-.835Z" transform="translate(0 -0.005)"/>
    </symbol>
    <!-- 暂停 -->
    <symbol id="icon-pause" viewBox="0 0 18 26">
        <path d="M2,0A2,2,0,0,0,0,2V24a2,2,0,0,0,4,0V2A2,2,0,0,0,2,0Z"/>
        <path d="M16,0a2,2,0,0,0-2,2V24a2,2,0,0,0,4,0V2A2,2,0,0,0,16,0Z"/>
    </symbol>
    <!-- 暗恋 -->
    <symbol id="icon-love" viewBox="0 0 16 14">
        <path d="M15.571,2.7A4.547,4.547,0,0,0,11.5,0,4.349,4.349,0,0,0,8,1.528,4.349,4.349,0,0,0,4.5,0,4.547,4.547,0,0,0,.427,2.7a4.455,4.455,0,0,0,.912,5.068A79.12,79.12,0,0,0,7.515,13.82a.792.792,0,0,0,1,0c.037-.018,2.9-2.534,6.177-6.056A4.506,4.506,0,0,0,15.571,2.7Z" transform="translate(0)"/>
    </symbol>
    <!-- 加好友 -->
    <symbol id="icon-add" viewBox="0 0 18 16">
        <path d="M17.5,7H16V5.5a.5.5,0,0,0-1,0V7H13.5a.5.5,0,0,0,0,1H15V9.5a.5.5,0,0,0,1,0V8h1.5a.5.5,0,0,0,0-1Z" />
        <path d="M10.23,7.32a4,4,0,1,0-4.46,0A8,8,0,0,0,0,15a1,1,0,0,0,1,1H15a1,1,0,0,0,1-1A8,8,0,0,0,10.23,7.32ZM8,7A1.5,1.5,0,0,1,6.5,5.5c0-.83,3-.83,3,0A1.5,1.5,0,0,1,8,7Z" />
    </symbol>
    <!-- 礼物 -->
    <symbol id="icon-gift" viewBox="0 0 22 20">
        <path d="M20.43,3.83H14.79l1.35-1.27a1.46,1.46,0,0,0,0-2.12,1.63,1.63,0,0,0-2.23,0L11,3.21,8.09.44a1.63,1.63,0,0,0-2.23,0,1.46,1.46,0,0,0,0,2.12L7.21,3.83H1.57A1.55,1.55,0,0,0,0,5.33a1.54,1.54,0,0,0,1.57,1.5H20.43A1.54,1.54,0,0,0,22,5.33,1.55,1.55,0,0,0,20.43,3.83Z" />
        <path d="M19.5,8.29h-7a.49.49,0,0,0-.5.49v8.29L11.45,16a.52.52,0,0,0-.9,0L10,17.07V8.78a.49.49,0,0,0-.5-.49h-7a.49.49,0,0,0-.5.49v9.27A2,2,0,0,0,4,20H18a2,2,0,0,0,2-1.95V8.78A.49.49,0,0,0,19.5,8.29Z" />
    </symbol>
    <!-- 私聊 -->
    <symbol id="icon-chat" viewBox="0 0 22 19">
        <path d="M20,0H2A2,2,0,0,0,0,1.93V14.45a2,2,0,0,0,2,1.93H7.86l2.43,2.34a1,1,0,0,0,1.42,0l2.43-2.34H20a2,2,0,0,0,2-1.93V1.93A2,2,0,0,0,20,0ZM5,9.15a1,1,0,1,1,1-1A1,1,0,0,1,5,9.15Zm6,0a1,1,0,1,1,1-1A1,1,0,0,1,11,9.15Zm6,0a1,1,0,1,1,1-1A1,1,0,0,1,17,9.15Z" />
    </symbol>
    <!-- 打招呼 -->
    <symbol id="icon-sayHi" viewBox="0 0 22 20">
        <path d="M11,0C4.92,0,0,4.48,0,10S4.92,20,11,20h5.94a1.92,1.92,0,0,0,1.92-1.91v-.31a2,2,0,0,1,.56-1.35A9.43,9.43,0,0,0,22,10C22,4.48,17.08,0,11,0Zm2,13.72H11.84V10.41a.2.2,0,0,0-.2-.2H8.71a.2.2,0,0,0-.2.2v3.31H7.37V6.27H8.51V8.93a.2.2,0,0,0,.2.2h2.93a.2.2,0,0,0,.2-.2V6.27H13Zm1.65,0h-1v-5h1Zm0-6.15h-1V6.28h1Z" />
    </symbol>
</svg>