<svg xmlns="http://www.w3.org/2000/svg" viewBox="0 0 16 26"><defs><style>.cls-1{fill:#666;}</style></defs><title>资源 66</title><g id="图层_2" data-name="图层 2"><g id="图层_1-2" data-name="图层 1"><path class="cls-1" d="M1.5,3h13a1.5,1.5,0,0,0,0-3H1.5a1.5,1.5,0,0,0,0,3Z"/><path class="cls-1" d="M15.55,12.8,9.08,6.44l0,0a1.41,1.41,0,0,0-.46-.3l-.05,0A1.62,1.62,0,0,0,8,6H8a1.62,1.62,0,0,0-.54.1l0,0a1.41,1.41,0,0,0-.46.3l0,0L.45,12.8a1.47,1.47,0,0,0,0,2.12,1.53,1.53,0,0,0,2.15,0l3.87-3.8V24.5a1.53,1.53,0,0,0,3.06,0V11.12l3.87,3.8a1.53,1.53,0,0,0,2.15,0A1.47,1.47,0,0,0,15.55,12.8Z"/></g></g></svg>