<svg xmlns="http://www.w3.org/2000/svg">
    <!-- 爱心 -->
    <symbol id="icon-heart" viewBox="0 0 14 12">
        <path d="M12.82,1.3a3.81,3.81,0,0,0-5.73,0L7,1.39,6.91,1.3a3.81,3.81,0,0,0-5.73,0,4.76,4.76,0,0,0,0,6.27l2.87,3.14A3.86,3.86,0,0,0,7,12,3.86,3.86,0,0,0,10,10.71l2.87-3.14A4.76,4.76,0,0,0,12.82,1.3Z" />
    </symbol>
    <!-- 图片 -->
    <symbol id="icon-photo" viewBox="0 0 16 14">
        <path d="M14,0H2A2,2,0,0,0,0,2V12a2,2,0,0,0,2,2H14a2,2,0,0,0,2-2V2A2,2,0,0,0,14,0Zm1,8L11,4A1,1,0,0,0,9.57,4L1.11,12.44A1.06,1.06,0,0,1,1,12V2A1,1,0,0,1,2,1H14a1,1,0,0,1,1,1Z" />
        <circle cx="3" cy="3" r="1" />
    </symbol>
    <!-- 礼物 -->
    <symbol id="icon-gift" viewBox="0 0 14 13.56">
         <path d="M13,2.56H9.41l.86-.85A1,1,0,0,0,8.85.29L7,2.15,5.15.29A1,1,0,0,0,3.73,1.71l.86.85H1a1,1,0,1,0,0,2H13a1,1,0,1,0,0-2Z" />
        <path d="M1,11.56a2,2,0,0,0,2,2H6.5v-8H1Z" />
        <path d="M7.5,13.56H11a2,2,0,0,0,2-2v-6H7.5Z" />
    </symbol>
    <!-- 曝光 -->
    <symbol id="icon-shine" viewBox="0 0 17 17">
        <circle cx="8.5" cy="8.5" r="5" />
        <path d="M2.9,12.68l-.7.71A1,1,0,0,0,3.61,14.8l.71-.7A1,1,0,0,0,2.9,12.68Z" />
        <path d="M14.1,4.32l.7-.71A1,1,0,0,0,13.39,2.2l-.71.7A1,1,0,0,0,14.1,4.32Z" />
        <path d="M14.1,12.68a1,1,0,0,0-1.42,1.42l.71.7a1,1,0,0,0,1.41-1.41Z" />
        <path class="cls-1" d="M2.9,4.32A1,1,0,1,0,4.32,2.9l-.71-.7A1,1,0,0,0,2.2,3.61Z" />
        <path d="M16,7.5H15a1,1,0,0,0,0,2h1a1,1,0,0,0,0-2Z" />
        <path d="M3,8.5a1,1,0,0,0-1-1H1a1,1,0,0,0,0,2H2A1,1,0,0,0,3,8.5Z" />
        <path d="M8.5,3a1,1,0,0,0,1-1V1a1,1,0,0,0-2,0V2A1,1,0,0,0,8.5,3Z" />
        <path d="M8.5,14a1,1,0,0,0-1,1v1a1,1,0,0,0,2,0V15A1,1,0,0,0,8.5,14Z" />
        </g>
    </symbol>
</svg>